<mxfile host="app.diagrams.net" modified="2024-05-09T03:25:43.416Z" agent="Mozilla/5.0 (Windows NT 10.0; Win64; x64) AppleWebKit/537.36 (KHTML, like Gecko) Chrome/124.0.0.0 Safari/537.36" etag="Q24Qo2VWLeeQo4RAWgDx" version="24.2.5" type="github">
  <diagram name="Fase 1 Inicio" id="8t1y3uFtydpFNQc3oyha">
    <mxGraphModel dx="1638" dy="1749" grid="1" gridSize="10" guides="1" tooltips="1" connect="1" arrows="1" fold="1" page="1" pageScale="1" pageWidth="827" pageHeight="1169" math="0" shadow="0">
      <root>
        <mxCell id="0" />
        <mxCell id="1" parent="0" />
        <mxCell id="MIYx1o6pVA1GDxMh2l_--1" value="" style="childLayout=tableLayout;recursiveResize=0;shadow=0;fillColor=#ffe6cc;rounded=0;whiteSpace=wrap;strokeColor=#d79b00;" vertex="1" parent="1">
          <mxGeometry x="140" y="-160" width="819.9999999999991" height="495" as="geometry" />
        </mxCell>
        <mxCell id="MIYx1o6pVA1GDxMh2l_--2" value="" style="shape=tableRow;horizontal=0;startSize=0;swimlaneHead=0;swimlaneBody=0;top=0;left=0;bottom=0;right=0;dropTarget=0;collapsible=0;recursiveResize=0;expand=0;fontStyle=0;fillColor=none;strokeColor=inherit;rounded=0;" vertex="1" parent="MIYx1o6pVA1GDxMh2l_--1">
          <mxGeometry width="819.9999999999991" height="40" as="geometry" />
        </mxCell>
        <mxCell id="MIYx1o6pVA1GDxMh2l_--3" value="No." style="connectable=0;recursiveResize=0;strokeColor=inherit;fillColor=none;align=center;whiteSpace=wrap;html=1;rounded=0;" vertex="1" parent="MIYx1o6pVA1GDxMh2l_--2">
          <mxGeometry width="30" height="40" as="geometry">
            <mxRectangle width="30" height="40" as="alternateBounds" />
          </mxGeometry>
        </mxCell>
        <mxCell id="MIYx1o6pVA1GDxMh2l_--4" value="Descripcion&amp;nbsp;" style="connectable=0;recursiveResize=0;strokeColor=#6c8ebf;fillColor=#dae8fc;align=center;whiteSpace=wrap;html=1;rounded=0;" vertex="1" parent="MIYx1o6pVA1GDxMh2l_--2">
          <mxGeometry x="30" width="170" height="40" as="geometry">
            <mxRectangle width="170" height="40" as="alternateBounds" />
          </mxGeometry>
        </mxCell>
        <mxCell id="MIYx1o6pVA1GDxMh2l_--5" value="Inicio" style="connectable=0;recursiveResize=0;strokeColor=inherit;fillColor=none;align=center;whiteSpace=wrap;html=1;rounded=0;" vertex="1" parent="MIYx1o6pVA1GDxMh2l_--2">
          <mxGeometry x="200" width="70" height="40" as="geometry">
            <mxRectangle width="70" height="40" as="alternateBounds" />
          </mxGeometry>
        </mxCell>
        <mxCell id="MIYx1o6pVA1GDxMh2l_--12" value="Final" style="connectable=0;recursiveResize=0;strokeColor=#b85450;fillColor=#f8cecc;align=center;whiteSpace=wrap;html=1;rounded=0;" vertex="1" parent="MIYx1o6pVA1GDxMh2l_--2">
          <mxGeometry x="270" width="70" height="40" as="geometry">
            <mxRectangle width="70" height="40" as="alternateBounds" />
          </mxGeometry>
        </mxCell>
        <mxCell id="MIYx1o6pVA1GDxMh2l_--34" value="Febrero" style="connectable=0;recursiveResize=0;strokeColor=#b85450;fillColor=#f8cecc;align=center;whiteSpace=wrap;html=1;rounded=0;" vertex="1" parent="MIYx1o6pVA1GDxMh2l_--2">
          <mxGeometry x="340" width="50" height="40" as="geometry">
            <mxRectangle width="50" height="40" as="alternateBounds" />
          </mxGeometry>
        </mxCell>
        <mxCell id="MIYx1o6pVA1GDxMh2l_--39" value="Marzo" style="connectable=0;recursiveResize=0;strokeColor=#b85450;fillColor=#f8cecc;align=center;whiteSpace=wrap;html=1;rounded=0;" vertex="1" parent="MIYx1o6pVA1GDxMh2l_--2">
          <mxGeometry x="390" width="50" height="40" as="geometry">
            <mxRectangle width="50" height="40" as="alternateBounds" />
          </mxGeometry>
        </mxCell>
        <mxCell id="MIYx1o6pVA1GDxMh2l_--44" value="Abril" style="connectable=0;recursiveResize=0;strokeColor=#b85450;fillColor=#f8cecc;align=center;whiteSpace=wrap;html=1;rounded=0;" vertex="1" parent="MIYx1o6pVA1GDxMh2l_--2">
          <mxGeometry x="440" width="50" height="40" as="geometry">
            <mxRectangle width="50" height="40" as="alternateBounds" />
          </mxGeometry>
        </mxCell>
        <mxCell id="MIYx1o6pVA1GDxMh2l_--49" value="Mayo" style="connectable=0;recursiveResize=0;strokeColor=#b85450;fillColor=#f8cecc;align=center;whiteSpace=wrap;html=1;rounded=0;" vertex="1" parent="MIYx1o6pVA1GDxMh2l_--2">
          <mxGeometry x="490" width="50" height="40" as="geometry">
            <mxRectangle width="50" height="40" as="alternateBounds" />
          </mxGeometry>
        </mxCell>
        <mxCell id="MIYx1o6pVA1GDxMh2l_--54" value="Junio" style="connectable=0;recursiveResize=0;strokeColor=#b85450;fillColor=#f8cecc;align=center;whiteSpace=wrap;html=1;rounded=0;" vertex="1" parent="MIYx1o6pVA1GDxMh2l_--2">
          <mxGeometry x="540" width="50" height="40" as="geometry">
            <mxRectangle width="50" height="40" as="alternateBounds" />
          </mxGeometry>
        </mxCell>
        <mxCell id="MIYx1o6pVA1GDxMh2l_--133" value="Julio&lt;span style=&quot;white-space: pre;&quot;&gt;&#x9;&lt;/span&gt;" style="connectable=0;recursiveResize=0;strokeColor=#b85450;fillColor=#f8cecc;align=center;whiteSpace=wrap;html=1;rounded=0;" vertex="1" parent="MIYx1o6pVA1GDxMh2l_--2">
          <mxGeometry x="590" width="50" height="40" as="geometry">
            <mxRectangle width="50" height="40" as="alternateBounds" />
          </mxGeometry>
        </mxCell>
        <mxCell id="MIYx1o6pVA1GDxMh2l_--143" value="Agosto" style="connectable=0;recursiveResize=0;strokeColor=#b85450;fillColor=#f8cecc;align=center;whiteSpace=wrap;html=1;rounded=0;" vertex="1" parent="MIYx1o6pVA1GDxMh2l_--2">
          <mxGeometry x="640" width="50" height="40" as="geometry">
            <mxRectangle width="50" height="40" as="alternateBounds" />
          </mxGeometry>
        </mxCell>
        <mxCell id="MIYx1o6pVA1GDxMh2l_--163" value="Septiembre" style="connectable=0;recursiveResize=0;strokeColor=#b85450;fillColor=#f8cecc;align=center;whiteSpace=wrap;html=1;rounded=0;" vertex="1" parent="MIYx1o6pVA1GDxMh2l_--2">
          <mxGeometry x="690" width="70" height="40" as="geometry">
            <mxRectangle width="70" height="40" as="alternateBounds" />
          </mxGeometry>
        </mxCell>
        <mxCell id="MIYx1o6pVA1GDxMh2l_--153" value="Octubre" style="connectable=0;recursiveResize=0;strokeColor=#b85450;fillColor=#f8cecc;align=center;whiteSpace=wrap;html=1;rounded=0;" vertex="1" parent="MIYx1o6pVA1GDxMh2l_--2">
          <mxGeometry x="760" width="60" height="40" as="geometry">
            <mxRectangle width="60" height="40" as="alternateBounds" />
          </mxGeometry>
        </mxCell>
        <mxCell id="MIYx1o6pVA1GDxMh2l_--6" style="shape=tableRow;horizontal=0;startSize=0;swimlaneHead=0;swimlaneBody=0;top=0;left=0;bottom=0;right=0;dropTarget=0;collapsible=0;recursiveResize=0;expand=0;fontStyle=0;fillColor=none;strokeColor=inherit;rounded=0;" vertex="1" parent="MIYx1o6pVA1GDxMh2l_--1">
          <mxGeometry y="40" width="819.9999999999991" height="56" as="geometry" />
        </mxCell>
        <mxCell id="MIYx1o6pVA1GDxMh2l_--7" value="1" style="connectable=0;recursiveResize=0;strokeColor=inherit;fillColor=none;align=center;whiteSpace=wrap;html=1;rounded=0;" vertex="1" parent="MIYx1o6pVA1GDxMh2l_--6">
          <mxGeometry width="30" height="56" as="geometry">
            <mxRectangle width="30" height="56" as="alternateBounds" />
          </mxGeometry>
        </mxCell>
        <mxCell id="MIYx1o6pVA1GDxMh2l_--8" value="asdfasolciasdfja al decano correspondientoe" style="connectable=0;recursiveResize=0;strokeColor=inherit;fillColor=none;align=center;whiteSpace=wrap;html=1;rounded=0;" vertex="1" parent="MIYx1o6pVA1GDxMh2l_--6">
          <mxGeometry x="30" width="170" height="56" as="geometry">
            <mxRectangle width="170" height="56" as="alternateBounds" />
          </mxGeometry>
        </mxCell>
        <mxCell id="MIYx1o6pVA1GDxMh2l_--9" value="15 de abril" style="connectable=0;recursiveResize=0;strokeColor=inherit;fillColor=none;align=center;whiteSpace=wrap;html=1;rounded=0;" vertex="1" parent="MIYx1o6pVA1GDxMh2l_--6">
          <mxGeometry x="200" width="70" height="56" as="geometry">
            <mxRectangle width="70" height="56" as="alternateBounds" />
          </mxGeometry>
        </mxCell>
        <mxCell id="MIYx1o6pVA1GDxMh2l_--13" value="25 da abril" style="connectable=0;recursiveResize=0;strokeColor=inherit;fillColor=none;align=center;whiteSpace=wrap;html=1;rounded=0;" vertex="1" parent="MIYx1o6pVA1GDxMh2l_--6">
          <mxGeometry x="270" width="70" height="56" as="geometry">
            <mxRectangle width="70" height="56" as="alternateBounds" />
          </mxGeometry>
        </mxCell>
        <mxCell id="MIYx1o6pVA1GDxMh2l_--35" style="connectable=0;recursiveResize=0;strokeColor=inherit;fillColor=none;align=center;whiteSpace=wrap;html=1;rounded=0;" vertex="1" parent="MIYx1o6pVA1GDxMh2l_--6">
          <mxGeometry x="340" width="50" height="56" as="geometry">
            <mxRectangle width="50" height="56" as="alternateBounds" />
          </mxGeometry>
        </mxCell>
        <mxCell id="MIYx1o6pVA1GDxMh2l_--40" style="connectable=0;recursiveResize=0;strokeColor=inherit;fillColor=none;align=center;whiteSpace=wrap;html=1;rounded=0;" vertex="1" parent="MIYx1o6pVA1GDxMh2l_--6">
          <mxGeometry x="390" width="50" height="56" as="geometry">
            <mxRectangle width="50" height="56" as="alternateBounds" />
          </mxGeometry>
        </mxCell>
        <mxCell id="MIYx1o6pVA1GDxMh2l_--45" style="connectable=0;recursiveResize=0;strokeColor=inherit;fillColor=none;align=center;whiteSpace=wrap;html=1;rounded=0;" vertex="1" parent="MIYx1o6pVA1GDxMh2l_--6">
          <mxGeometry x="440" width="50" height="56" as="geometry">
            <mxRectangle width="50" height="56" as="alternateBounds" />
          </mxGeometry>
        </mxCell>
        <mxCell id="MIYx1o6pVA1GDxMh2l_--50" style="connectable=0;recursiveResize=0;strokeColor=inherit;fillColor=none;align=center;whiteSpace=wrap;html=1;rounded=0;" vertex="1" parent="MIYx1o6pVA1GDxMh2l_--6">
          <mxGeometry x="490" width="50" height="56" as="geometry">
            <mxRectangle width="50" height="56" as="alternateBounds" />
          </mxGeometry>
        </mxCell>
        <mxCell id="MIYx1o6pVA1GDxMh2l_--55" style="connectable=0;recursiveResize=0;strokeColor=inherit;fillColor=none;align=center;whiteSpace=wrap;html=1;rounded=0;" vertex="1" parent="MIYx1o6pVA1GDxMh2l_--6">
          <mxGeometry x="540" width="50" height="56" as="geometry">
            <mxRectangle width="50" height="56" as="alternateBounds" />
          </mxGeometry>
        </mxCell>
        <mxCell id="MIYx1o6pVA1GDxMh2l_--134" style="connectable=0;recursiveResize=0;strokeColor=inherit;fillColor=none;align=center;whiteSpace=wrap;html=1;rounded=0;" vertex="1" parent="MIYx1o6pVA1GDxMh2l_--6">
          <mxGeometry x="590" width="50" height="56" as="geometry">
            <mxRectangle width="50" height="56" as="alternateBounds" />
          </mxGeometry>
        </mxCell>
        <mxCell id="MIYx1o6pVA1GDxMh2l_--144" style="connectable=0;recursiveResize=0;strokeColor=inherit;fillColor=none;align=center;whiteSpace=wrap;html=1;rounded=0;" vertex="1" parent="MIYx1o6pVA1GDxMh2l_--6">
          <mxGeometry x="640" width="50" height="56" as="geometry">
            <mxRectangle width="50" height="56" as="alternateBounds" />
          </mxGeometry>
        </mxCell>
        <mxCell id="MIYx1o6pVA1GDxMh2l_--164" style="connectable=0;recursiveResize=0;strokeColor=inherit;fillColor=none;align=center;whiteSpace=wrap;html=1;rounded=0;" vertex="1" parent="MIYx1o6pVA1GDxMh2l_--6">
          <mxGeometry x="690" width="70" height="56" as="geometry">
            <mxRectangle width="70" height="56" as="alternateBounds" />
          </mxGeometry>
        </mxCell>
        <mxCell id="MIYx1o6pVA1GDxMh2l_--154" style="connectable=0;recursiveResize=0;strokeColor=inherit;fillColor=none;align=center;whiteSpace=wrap;html=1;rounded=0;" vertex="1" parent="MIYx1o6pVA1GDxMh2l_--6">
          <mxGeometry x="760" width="60" height="56" as="geometry">
            <mxRectangle width="60" height="56" as="alternateBounds" />
          </mxGeometry>
        </mxCell>
        <mxCell id="MIYx1o6pVA1GDxMh2l_--14" style="shape=tableRow;horizontal=0;startSize=0;swimlaneHead=0;swimlaneBody=0;top=0;left=0;bottom=0;right=0;dropTarget=0;collapsible=0;recursiveResize=0;expand=0;fontStyle=0;fillColor=none;strokeColor=inherit;rounded=0;" vertex="1" parent="MIYx1o6pVA1GDxMh2l_--1">
          <mxGeometry y="96" width="819.9999999999991" height="49" as="geometry" />
        </mxCell>
        <mxCell id="MIYx1o6pVA1GDxMh2l_--15" value="2" style="connectable=0;recursiveResize=0;strokeColor=inherit;fillColor=none;align=center;whiteSpace=wrap;html=1;rounded=0;" vertex="1" parent="MIYx1o6pVA1GDxMh2l_--14">
          <mxGeometry width="30" height="49" as="geometry">
            <mxRectangle width="30" height="49" as="alternateBounds" />
          </mxGeometry>
        </mxCell>
        <mxCell id="MIYx1o6pVA1GDxMh2l_--16" style="connectable=0;recursiveResize=0;strokeColor=inherit;fillColor=none;align=center;whiteSpace=wrap;html=1;rounded=0;" vertex="1" parent="MIYx1o6pVA1GDxMh2l_--14">
          <mxGeometry x="30" width="170" height="49" as="geometry">
            <mxRectangle width="170" height="49" as="alternateBounds" />
          </mxGeometry>
        </mxCell>
        <mxCell id="MIYx1o6pVA1GDxMh2l_--17" style="connectable=0;recursiveResize=0;strokeColor=inherit;fillColor=none;align=center;whiteSpace=wrap;html=1;rounded=0;" vertex="1" parent="MIYx1o6pVA1GDxMh2l_--14">
          <mxGeometry x="200" width="70" height="49" as="geometry">
            <mxRectangle width="70" height="49" as="alternateBounds" />
          </mxGeometry>
        </mxCell>
        <mxCell id="MIYx1o6pVA1GDxMh2l_--18" style="connectable=0;recursiveResize=0;strokeColor=inherit;fillColor=none;align=center;whiteSpace=wrap;html=1;rounded=0;" vertex="1" parent="MIYx1o6pVA1GDxMh2l_--14">
          <mxGeometry x="270" width="70" height="49" as="geometry">
            <mxRectangle width="70" height="49" as="alternateBounds" />
          </mxGeometry>
        </mxCell>
        <mxCell id="MIYx1o6pVA1GDxMh2l_--36" style="connectable=0;recursiveResize=0;strokeColor=inherit;fillColor=none;align=center;whiteSpace=wrap;html=1;rounded=0;" vertex="1" parent="MIYx1o6pVA1GDxMh2l_--14">
          <mxGeometry x="340" width="50" height="49" as="geometry">
            <mxRectangle width="50" height="49" as="alternateBounds" />
          </mxGeometry>
        </mxCell>
        <mxCell id="MIYx1o6pVA1GDxMh2l_--41" style="connectable=0;recursiveResize=0;strokeColor=inherit;fillColor=none;align=center;whiteSpace=wrap;html=1;rounded=0;" vertex="1" parent="MIYx1o6pVA1GDxMh2l_--14">
          <mxGeometry x="390" width="50" height="49" as="geometry">
            <mxRectangle width="50" height="49" as="alternateBounds" />
          </mxGeometry>
        </mxCell>
        <mxCell id="MIYx1o6pVA1GDxMh2l_--46" style="connectable=0;recursiveResize=0;strokeColor=inherit;fillColor=none;align=center;whiteSpace=wrap;html=1;rounded=0;" vertex="1" parent="MIYx1o6pVA1GDxMh2l_--14">
          <mxGeometry x="440" width="50" height="49" as="geometry">
            <mxRectangle width="50" height="49" as="alternateBounds" />
          </mxGeometry>
        </mxCell>
        <mxCell id="MIYx1o6pVA1GDxMh2l_--51" style="connectable=0;recursiveResize=0;strokeColor=inherit;fillColor=none;align=center;whiteSpace=wrap;html=1;rounded=0;" vertex="1" parent="MIYx1o6pVA1GDxMh2l_--14">
          <mxGeometry x="490" width="50" height="49" as="geometry">
            <mxRectangle width="50" height="49" as="alternateBounds" />
          </mxGeometry>
        </mxCell>
        <mxCell id="MIYx1o6pVA1GDxMh2l_--56" style="connectable=0;recursiveResize=0;strokeColor=inherit;fillColor=none;align=center;whiteSpace=wrap;html=1;rounded=0;" vertex="1" parent="MIYx1o6pVA1GDxMh2l_--14">
          <mxGeometry x="540" width="50" height="49" as="geometry">
            <mxRectangle width="50" height="49" as="alternateBounds" />
          </mxGeometry>
        </mxCell>
        <mxCell id="MIYx1o6pVA1GDxMh2l_--135" style="connectable=0;recursiveResize=0;strokeColor=inherit;fillColor=none;align=center;whiteSpace=wrap;html=1;rounded=0;" vertex="1" parent="MIYx1o6pVA1GDxMh2l_--14">
          <mxGeometry x="590" width="50" height="49" as="geometry">
            <mxRectangle width="50" height="49" as="alternateBounds" />
          </mxGeometry>
        </mxCell>
        <mxCell id="MIYx1o6pVA1GDxMh2l_--145" style="connectable=0;recursiveResize=0;strokeColor=inherit;fillColor=none;align=center;whiteSpace=wrap;html=1;rounded=0;" vertex="1" parent="MIYx1o6pVA1GDxMh2l_--14">
          <mxGeometry x="640" width="50" height="49" as="geometry">
            <mxRectangle width="50" height="49" as="alternateBounds" />
          </mxGeometry>
        </mxCell>
        <mxCell id="MIYx1o6pVA1GDxMh2l_--165" style="connectable=0;recursiveResize=0;strokeColor=inherit;fillColor=none;align=center;whiteSpace=wrap;html=1;rounded=0;" vertex="1" parent="MIYx1o6pVA1GDxMh2l_--14">
          <mxGeometry x="690" width="70" height="49" as="geometry">
            <mxRectangle width="70" height="49" as="alternateBounds" />
          </mxGeometry>
        </mxCell>
        <mxCell id="MIYx1o6pVA1GDxMh2l_--155" style="connectable=0;recursiveResize=0;strokeColor=inherit;fillColor=none;align=center;whiteSpace=wrap;html=1;rounded=0;" vertex="1" parent="MIYx1o6pVA1GDxMh2l_--14">
          <mxGeometry x="760" width="60" height="49" as="geometry">
            <mxRectangle width="60" height="49" as="alternateBounds" />
          </mxGeometry>
        </mxCell>
        <mxCell id="MIYx1o6pVA1GDxMh2l_--19" style="shape=tableRow;horizontal=0;startSize=0;swimlaneHead=0;swimlaneBody=0;top=0;left=0;bottom=0;right=0;dropTarget=0;collapsible=0;recursiveResize=0;expand=0;fontStyle=0;fillColor=none;strokeColor=inherit;rounded=0;" vertex="1" parent="MIYx1o6pVA1GDxMh2l_--1">
          <mxGeometry y="145" width="819.9999999999991" height="50" as="geometry" />
        </mxCell>
        <mxCell id="MIYx1o6pVA1GDxMh2l_--20" value="3" style="connectable=0;recursiveResize=0;strokeColor=inherit;fillColor=none;align=center;whiteSpace=wrap;html=1;rounded=0;" vertex="1" parent="MIYx1o6pVA1GDxMh2l_--19">
          <mxGeometry width="30" height="50" as="geometry">
            <mxRectangle width="30" height="50" as="alternateBounds" />
          </mxGeometry>
        </mxCell>
        <mxCell id="MIYx1o6pVA1GDxMh2l_--21" style="connectable=0;recursiveResize=0;strokeColor=inherit;fillColor=none;align=center;whiteSpace=wrap;html=1;rounded=0;" vertex="1" parent="MIYx1o6pVA1GDxMh2l_--19">
          <mxGeometry x="30" width="170" height="50" as="geometry">
            <mxRectangle width="170" height="50" as="alternateBounds" />
          </mxGeometry>
        </mxCell>
        <mxCell id="MIYx1o6pVA1GDxMh2l_--22" style="connectable=0;recursiveResize=0;strokeColor=inherit;fillColor=none;align=center;whiteSpace=wrap;html=1;rounded=0;" vertex="1" parent="MIYx1o6pVA1GDxMh2l_--19">
          <mxGeometry x="200" width="70" height="50" as="geometry">
            <mxRectangle width="70" height="50" as="alternateBounds" />
          </mxGeometry>
        </mxCell>
        <mxCell id="MIYx1o6pVA1GDxMh2l_--23" style="connectable=0;recursiveResize=0;strokeColor=inherit;fillColor=none;align=center;whiteSpace=wrap;html=1;rounded=0;" vertex="1" parent="MIYx1o6pVA1GDxMh2l_--19">
          <mxGeometry x="270" width="70" height="50" as="geometry">
            <mxRectangle width="70" height="50" as="alternateBounds" />
          </mxGeometry>
        </mxCell>
        <mxCell id="MIYx1o6pVA1GDxMh2l_--37" style="connectable=0;recursiveResize=0;strokeColor=inherit;fillColor=none;align=center;whiteSpace=wrap;html=1;rounded=0;" vertex="1" parent="MIYx1o6pVA1GDxMh2l_--19">
          <mxGeometry x="340" width="50" height="50" as="geometry">
            <mxRectangle width="50" height="50" as="alternateBounds" />
          </mxGeometry>
        </mxCell>
        <mxCell id="MIYx1o6pVA1GDxMh2l_--42" style="connectable=0;recursiveResize=0;strokeColor=inherit;fillColor=none;align=center;whiteSpace=wrap;html=1;rounded=0;" vertex="1" parent="MIYx1o6pVA1GDxMh2l_--19">
          <mxGeometry x="390" width="50" height="50" as="geometry">
            <mxRectangle width="50" height="50" as="alternateBounds" />
          </mxGeometry>
        </mxCell>
        <mxCell id="MIYx1o6pVA1GDxMh2l_--47" style="connectable=0;recursiveResize=0;strokeColor=inherit;fillColor=none;align=center;whiteSpace=wrap;html=1;rounded=0;" vertex="1" parent="MIYx1o6pVA1GDxMh2l_--19">
          <mxGeometry x="440" width="50" height="50" as="geometry">
            <mxRectangle width="50" height="50" as="alternateBounds" />
          </mxGeometry>
        </mxCell>
        <mxCell id="MIYx1o6pVA1GDxMh2l_--52" style="connectable=0;recursiveResize=0;strokeColor=inherit;fillColor=none;align=center;whiteSpace=wrap;html=1;rounded=0;" vertex="1" parent="MIYx1o6pVA1GDxMh2l_--19">
          <mxGeometry x="490" width="50" height="50" as="geometry">
            <mxRectangle width="50" height="50" as="alternateBounds" />
          </mxGeometry>
        </mxCell>
        <mxCell id="MIYx1o6pVA1GDxMh2l_--57" style="connectable=0;recursiveResize=0;strokeColor=inherit;fillColor=none;align=center;whiteSpace=wrap;html=1;rounded=0;" vertex="1" parent="MIYx1o6pVA1GDxMh2l_--19">
          <mxGeometry x="540" width="50" height="50" as="geometry">
            <mxRectangle width="50" height="50" as="alternateBounds" />
          </mxGeometry>
        </mxCell>
        <mxCell id="MIYx1o6pVA1GDxMh2l_--136" style="connectable=0;recursiveResize=0;strokeColor=inherit;fillColor=none;align=center;whiteSpace=wrap;html=1;rounded=0;" vertex="1" parent="MIYx1o6pVA1GDxMh2l_--19">
          <mxGeometry x="590" width="50" height="50" as="geometry">
            <mxRectangle width="50" height="50" as="alternateBounds" />
          </mxGeometry>
        </mxCell>
        <mxCell id="MIYx1o6pVA1GDxMh2l_--146" style="connectable=0;recursiveResize=0;strokeColor=inherit;fillColor=none;align=center;whiteSpace=wrap;html=1;rounded=0;" vertex="1" parent="MIYx1o6pVA1GDxMh2l_--19">
          <mxGeometry x="640" width="50" height="50" as="geometry">
            <mxRectangle width="50" height="50" as="alternateBounds" />
          </mxGeometry>
        </mxCell>
        <mxCell id="MIYx1o6pVA1GDxMh2l_--166" style="connectable=0;recursiveResize=0;strokeColor=inherit;fillColor=none;align=center;whiteSpace=wrap;html=1;rounded=0;" vertex="1" parent="MIYx1o6pVA1GDxMh2l_--19">
          <mxGeometry x="690" width="70" height="50" as="geometry">
            <mxRectangle width="70" height="50" as="alternateBounds" />
          </mxGeometry>
        </mxCell>
        <mxCell id="MIYx1o6pVA1GDxMh2l_--156" style="connectable=0;recursiveResize=0;strokeColor=inherit;fillColor=none;align=center;whiteSpace=wrap;html=1;rounded=0;" vertex="1" parent="MIYx1o6pVA1GDxMh2l_--19">
          <mxGeometry x="760" width="60" height="50" as="geometry">
            <mxRectangle width="60" height="50" as="alternateBounds" />
          </mxGeometry>
        </mxCell>
        <mxCell id="MIYx1o6pVA1GDxMh2l_--29" style="shape=tableRow;horizontal=0;startSize=0;swimlaneHead=0;swimlaneBody=0;top=0;left=0;bottom=0;right=0;dropTarget=0;collapsible=0;recursiveResize=0;expand=0;fontStyle=0;fillColor=none;strokeColor=inherit;rounded=0;" vertex="1" parent="MIYx1o6pVA1GDxMh2l_--1">
          <mxGeometry y="195" width="819.9999999999991" height="50" as="geometry" />
        </mxCell>
        <mxCell id="MIYx1o6pVA1GDxMh2l_--30" style="connectable=0;recursiveResize=0;strokeColor=inherit;fillColor=none;align=center;whiteSpace=wrap;html=1;rounded=0;" vertex="1" parent="MIYx1o6pVA1GDxMh2l_--29">
          <mxGeometry width="30" height="50" as="geometry">
            <mxRectangle width="30" height="50" as="alternateBounds" />
          </mxGeometry>
        </mxCell>
        <mxCell id="MIYx1o6pVA1GDxMh2l_--31" style="connectable=0;recursiveResize=0;strokeColor=inherit;fillColor=none;align=center;whiteSpace=wrap;html=1;rounded=0;" vertex="1" parent="MIYx1o6pVA1GDxMh2l_--29">
          <mxGeometry x="30" width="170" height="50" as="geometry">
            <mxRectangle width="170" height="50" as="alternateBounds" />
          </mxGeometry>
        </mxCell>
        <mxCell id="MIYx1o6pVA1GDxMh2l_--32" style="connectable=0;recursiveResize=0;strokeColor=inherit;fillColor=none;align=center;whiteSpace=wrap;html=1;rounded=0;" vertex="1" parent="MIYx1o6pVA1GDxMh2l_--29">
          <mxGeometry x="200" width="70" height="50" as="geometry">
            <mxRectangle width="70" height="50" as="alternateBounds" />
          </mxGeometry>
        </mxCell>
        <mxCell id="MIYx1o6pVA1GDxMh2l_--33" style="connectable=0;recursiveResize=0;strokeColor=inherit;fillColor=none;align=center;whiteSpace=wrap;html=1;rounded=0;" vertex="1" parent="MIYx1o6pVA1GDxMh2l_--29">
          <mxGeometry x="270" width="70" height="50" as="geometry">
            <mxRectangle width="70" height="50" as="alternateBounds" />
          </mxGeometry>
        </mxCell>
        <mxCell id="MIYx1o6pVA1GDxMh2l_--38" style="connectable=0;recursiveResize=0;strokeColor=inherit;fillColor=none;align=center;whiteSpace=wrap;html=1;rounded=0;" vertex="1" parent="MIYx1o6pVA1GDxMh2l_--29">
          <mxGeometry x="340" width="50" height="50" as="geometry">
            <mxRectangle width="50" height="50" as="alternateBounds" />
          </mxGeometry>
        </mxCell>
        <mxCell id="MIYx1o6pVA1GDxMh2l_--43" style="connectable=0;recursiveResize=0;strokeColor=inherit;fillColor=none;align=center;whiteSpace=wrap;html=1;rounded=0;" vertex="1" parent="MIYx1o6pVA1GDxMh2l_--29">
          <mxGeometry x="390" width="50" height="50" as="geometry">
            <mxRectangle width="50" height="50" as="alternateBounds" />
          </mxGeometry>
        </mxCell>
        <mxCell id="MIYx1o6pVA1GDxMh2l_--48" style="connectable=0;recursiveResize=0;strokeColor=inherit;fillColor=none;align=center;whiteSpace=wrap;html=1;rounded=0;" vertex="1" parent="MIYx1o6pVA1GDxMh2l_--29">
          <mxGeometry x="440" width="50" height="50" as="geometry">
            <mxRectangle width="50" height="50" as="alternateBounds" />
          </mxGeometry>
        </mxCell>
        <mxCell id="MIYx1o6pVA1GDxMh2l_--53" style="connectable=0;recursiveResize=0;strokeColor=inherit;fillColor=none;align=center;whiteSpace=wrap;html=1;rounded=0;" vertex="1" parent="MIYx1o6pVA1GDxMh2l_--29">
          <mxGeometry x="490" width="50" height="50" as="geometry">
            <mxRectangle width="50" height="50" as="alternateBounds" />
          </mxGeometry>
        </mxCell>
        <mxCell id="MIYx1o6pVA1GDxMh2l_--58" style="connectable=0;recursiveResize=0;strokeColor=inherit;fillColor=none;align=center;whiteSpace=wrap;html=1;rounded=0;" vertex="1" parent="MIYx1o6pVA1GDxMh2l_--29">
          <mxGeometry x="540" width="50" height="50" as="geometry">
            <mxRectangle width="50" height="50" as="alternateBounds" />
          </mxGeometry>
        </mxCell>
        <mxCell id="MIYx1o6pVA1GDxMh2l_--137" style="connectable=0;recursiveResize=0;strokeColor=inherit;fillColor=none;align=center;whiteSpace=wrap;html=1;rounded=0;" vertex="1" parent="MIYx1o6pVA1GDxMh2l_--29">
          <mxGeometry x="590" width="50" height="50" as="geometry">
            <mxRectangle width="50" height="50" as="alternateBounds" />
          </mxGeometry>
        </mxCell>
        <mxCell id="MIYx1o6pVA1GDxMh2l_--147" style="connectable=0;recursiveResize=0;strokeColor=inherit;fillColor=none;align=center;whiteSpace=wrap;html=1;rounded=0;" vertex="1" parent="MIYx1o6pVA1GDxMh2l_--29">
          <mxGeometry x="640" width="50" height="50" as="geometry">
            <mxRectangle width="50" height="50" as="alternateBounds" />
          </mxGeometry>
        </mxCell>
        <mxCell id="MIYx1o6pVA1GDxMh2l_--167" style="connectable=0;recursiveResize=0;strokeColor=inherit;fillColor=none;align=center;whiteSpace=wrap;html=1;rounded=0;" vertex="1" parent="MIYx1o6pVA1GDxMh2l_--29">
          <mxGeometry x="690" width="70" height="50" as="geometry">
            <mxRectangle width="70" height="50" as="alternateBounds" />
          </mxGeometry>
        </mxCell>
        <mxCell id="MIYx1o6pVA1GDxMh2l_--157" style="connectable=0;recursiveResize=0;strokeColor=inherit;fillColor=none;align=center;whiteSpace=wrap;html=1;rounded=0;" vertex="1" parent="MIYx1o6pVA1GDxMh2l_--29">
          <mxGeometry x="760" width="60" height="50" as="geometry">
            <mxRectangle width="60" height="50" as="alternateBounds" />
          </mxGeometry>
        </mxCell>
        <mxCell id="MIYx1o6pVA1GDxMh2l_--59" style="shape=tableRow;horizontal=0;startSize=0;swimlaneHead=0;swimlaneBody=0;top=0;left=0;bottom=0;right=0;dropTarget=0;collapsible=0;recursiveResize=0;expand=0;fontStyle=0;fillColor=none;strokeColor=inherit;rounded=0;" vertex="1" parent="MIYx1o6pVA1GDxMh2l_--1">
          <mxGeometry y="245" width="819.9999999999991" height="50" as="geometry" />
        </mxCell>
        <mxCell id="MIYx1o6pVA1GDxMh2l_--60" style="connectable=0;recursiveResize=0;strokeColor=inherit;fillColor=none;align=center;whiteSpace=wrap;html=1;rounded=0;" vertex="1" parent="MIYx1o6pVA1GDxMh2l_--59">
          <mxGeometry width="30" height="50" as="geometry">
            <mxRectangle width="30" height="50" as="alternateBounds" />
          </mxGeometry>
        </mxCell>
        <mxCell id="MIYx1o6pVA1GDxMh2l_--61" style="connectable=0;recursiveResize=0;strokeColor=inherit;fillColor=none;align=center;whiteSpace=wrap;html=1;rounded=0;" vertex="1" parent="MIYx1o6pVA1GDxMh2l_--59">
          <mxGeometry x="30" width="170" height="50" as="geometry">
            <mxRectangle width="170" height="50" as="alternateBounds" />
          </mxGeometry>
        </mxCell>
        <mxCell id="MIYx1o6pVA1GDxMh2l_--62" style="connectable=0;recursiveResize=0;strokeColor=inherit;fillColor=none;align=center;whiteSpace=wrap;html=1;rounded=0;" vertex="1" parent="MIYx1o6pVA1GDxMh2l_--59">
          <mxGeometry x="200" width="70" height="50" as="geometry">
            <mxRectangle width="70" height="50" as="alternateBounds" />
          </mxGeometry>
        </mxCell>
        <mxCell id="MIYx1o6pVA1GDxMh2l_--63" style="connectable=0;recursiveResize=0;strokeColor=inherit;fillColor=none;align=center;whiteSpace=wrap;html=1;rounded=0;" vertex="1" parent="MIYx1o6pVA1GDxMh2l_--59">
          <mxGeometry x="270" width="70" height="50" as="geometry">
            <mxRectangle width="70" height="50" as="alternateBounds" />
          </mxGeometry>
        </mxCell>
        <mxCell id="MIYx1o6pVA1GDxMh2l_--64" style="connectable=0;recursiveResize=0;strokeColor=inherit;fillColor=none;align=center;whiteSpace=wrap;html=1;rounded=0;" vertex="1" parent="MIYx1o6pVA1GDxMh2l_--59">
          <mxGeometry x="340" width="50" height="50" as="geometry">
            <mxRectangle width="50" height="50" as="alternateBounds" />
          </mxGeometry>
        </mxCell>
        <mxCell id="MIYx1o6pVA1GDxMh2l_--65" style="connectable=0;recursiveResize=0;strokeColor=inherit;fillColor=none;align=center;whiteSpace=wrap;html=1;rounded=0;" vertex="1" parent="MIYx1o6pVA1GDxMh2l_--59">
          <mxGeometry x="390" width="50" height="50" as="geometry">
            <mxRectangle width="50" height="50" as="alternateBounds" />
          </mxGeometry>
        </mxCell>
        <mxCell id="MIYx1o6pVA1GDxMh2l_--66" style="connectable=0;recursiveResize=0;strokeColor=inherit;fillColor=none;align=center;whiteSpace=wrap;html=1;rounded=0;" vertex="1" parent="MIYx1o6pVA1GDxMh2l_--59">
          <mxGeometry x="440" width="50" height="50" as="geometry">
            <mxRectangle width="50" height="50" as="alternateBounds" />
          </mxGeometry>
        </mxCell>
        <mxCell id="MIYx1o6pVA1GDxMh2l_--67" style="connectable=0;recursiveResize=0;strokeColor=inherit;fillColor=none;align=center;whiteSpace=wrap;html=1;rounded=0;" vertex="1" parent="MIYx1o6pVA1GDxMh2l_--59">
          <mxGeometry x="490" width="50" height="50" as="geometry">
            <mxRectangle width="50" height="50" as="alternateBounds" />
          </mxGeometry>
        </mxCell>
        <mxCell id="MIYx1o6pVA1GDxMh2l_--68" style="connectable=0;recursiveResize=0;strokeColor=inherit;fillColor=none;align=center;whiteSpace=wrap;html=1;rounded=0;" vertex="1" parent="MIYx1o6pVA1GDxMh2l_--59">
          <mxGeometry x="540" width="50" height="50" as="geometry">
            <mxRectangle width="50" height="50" as="alternateBounds" />
          </mxGeometry>
        </mxCell>
        <mxCell id="MIYx1o6pVA1GDxMh2l_--138" style="connectable=0;recursiveResize=0;strokeColor=inherit;fillColor=none;align=center;whiteSpace=wrap;html=1;rounded=0;" vertex="1" parent="MIYx1o6pVA1GDxMh2l_--59">
          <mxGeometry x="590" width="50" height="50" as="geometry">
            <mxRectangle width="50" height="50" as="alternateBounds" />
          </mxGeometry>
        </mxCell>
        <mxCell id="MIYx1o6pVA1GDxMh2l_--148" style="connectable=0;recursiveResize=0;strokeColor=inherit;fillColor=none;align=center;whiteSpace=wrap;html=1;rounded=0;" vertex="1" parent="MIYx1o6pVA1GDxMh2l_--59">
          <mxGeometry x="640" width="50" height="50" as="geometry">
            <mxRectangle width="50" height="50" as="alternateBounds" />
          </mxGeometry>
        </mxCell>
        <mxCell id="MIYx1o6pVA1GDxMh2l_--168" style="connectable=0;recursiveResize=0;strokeColor=inherit;fillColor=none;align=center;whiteSpace=wrap;html=1;rounded=0;" vertex="1" parent="MIYx1o6pVA1GDxMh2l_--59">
          <mxGeometry x="690" width="70" height="50" as="geometry">
            <mxRectangle width="70" height="50" as="alternateBounds" />
          </mxGeometry>
        </mxCell>
        <mxCell id="MIYx1o6pVA1GDxMh2l_--158" style="connectable=0;recursiveResize=0;strokeColor=inherit;fillColor=none;align=center;whiteSpace=wrap;html=1;rounded=0;" vertex="1" parent="MIYx1o6pVA1GDxMh2l_--59">
          <mxGeometry x="760" width="60" height="50" as="geometry">
            <mxRectangle width="60" height="50" as="alternateBounds" />
          </mxGeometry>
        </mxCell>
        <mxCell id="MIYx1o6pVA1GDxMh2l_--69" style="shape=tableRow;horizontal=0;startSize=0;swimlaneHead=0;swimlaneBody=0;top=0;left=0;bottom=0;right=0;dropTarget=0;collapsible=0;recursiveResize=0;expand=0;fontStyle=0;fillColor=none;strokeColor=inherit;rounded=0;" vertex="1" parent="MIYx1o6pVA1GDxMh2l_--1">
          <mxGeometry y="295" width="819.9999999999991" height="50" as="geometry" />
        </mxCell>
        <mxCell id="MIYx1o6pVA1GDxMh2l_--70" style="connectable=0;recursiveResize=0;strokeColor=inherit;fillColor=none;align=center;whiteSpace=wrap;html=1;rounded=0;" vertex="1" parent="MIYx1o6pVA1GDxMh2l_--69">
          <mxGeometry width="30" height="50" as="geometry">
            <mxRectangle width="30" height="50" as="alternateBounds" />
          </mxGeometry>
        </mxCell>
        <mxCell id="MIYx1o6pVA1GDxMh2l_--71" style="connectable=0;recursiveResize=0;strokeColor=inherit;fillColor=none;align=center;whiteSpace=wrap;html=1;rounded=0;" vertex="1" parent="MIYx1o6pVA1GDxMh2l_--69">
          <mxGeometry x="30" width="170" height="50" as="geometry">
            <mxRectangle width="170" height="50" as="alternateBounds" />
          </mxGeometry>
        </mxCell>
        <mxCell id="MIYx1o6pVA1GDxMh2l_--72" style="connectable=0;recursiveResize=0;strokeColor=inherit;fillColor=none;align=center;whiteSpace=wrap;html=1;rounded=0;" vertex="1" parent="MIYx1o6pVA1GDxMh2l_--69">
          <mxGeometry x="200" width="70" height="50" as="geometry">
            <mxRectangle width="70" height="50" as="alternateBounds" />
          </mxGeometry>
        </mxCell>
        <mxCell id="MIYx1o6pVA1GDxMh2l_--73" style="connectable=0;recursiveResize=0;strokeColor=inherit;fillColor=none;align=center;whiteSpace=wrap;html=1;rounded=0;" vertex="1" parent="MIYx1o6pVA1GDxMh2l_--69">
          <mxGeometry x="270" width="70" height="50" as="geometry">
            <mxRectangle width="70" height="50" as="alternateBounds" />
          </mxGeometry>
        </mxCell>
        <mxCell id="MIYx1o6pVA1GDxMh2l_--74" style="connectable=0;recursiveResize=0;strokeColor=inherit;fillColor=none;align=center;whiteSpace=wrap;html=1;rounded=0;" vertex="1" parent="MIYx1o6pVA1GDxMh2l_--69">
          <mxGeometry x="340" width="50" height="50" as="geometry">
            <mxRectangle width="50" height="50" as="alternateBounds" />
          </mxGeometry>
        </mxCell>
        <mxCell id="MIYx1o6pVA1GDxMh2l_--75" style="connectable=0;recursiveResize=0;strokeColor=inherit;fillColor=none;align=center;whiteSpace=wrap;html=1;rounded=0;" vertex="1" parent="MIYx1o6pVA1GDxMh2l_--69">
          <mxGeometry x="390" width="50" height="50" as="geometry">
            <mxRectangle width="50" height="50" as="alternateBounds" />
          </mxGeometry>
        </mxCell>
        <mxCell id="MIYx1o6pVA1GDxMh2l_--76" style="connectable=0;recursiveResize=0;strokeColor=inherit;fillColor=none;align=center;whiteSpace=wrap;html=1;rounded=0;" vertex="1" parent="MIYx1o6pVA1GDxMh2l_--69">
          <mxGeometry x="440" width="50" height="50" as="geometry">
            <mxRectangle width="50" height="50" as="alternateBounds" />
          </mxGeometry>
        </mxCell>
        <mxCell id="MIYx1o6pVA1GDxMh2l_--77" style="connectable=0;recursiveResize=0;strokeColor=inherit;fillColor=none;align=center;whiteSpace=wrap;html=1;rounded=0;" vertex="1" parent="MIYx1o6pVA1GDxMh2l_--69">
          <mxGeometry x="490" width="50" height="50" as="geometry">
            <mxRectangle width="50" height="50" as="alternateBounds" />
          </mxGeometry>
        </mxCell>
        <mxCell id="MIYx1o6pVA1GDxMh2l_--78" style="connectable=0;recursiveResize=0;strokeColor=inherit;fillColor=none;align=center;whiteSpace=wrap;html=1;rounded=0;" vertex="1" parent="MIYx1o6pVA1GDxMh2l_--69">
          <mxGeometry x="540" width="50" height="50" as="geometry">
            <mxRectangle width="50" height="50" as="alternateBounds" />
          </mxGeometry>
        </mxCell>
        <mxCell id="MIYx1o6pVA1GDxMh2l_--139" style="connectable=0;recursiveResize=0;strokeColor=inherit;fillColor=none;align=center;whiteSpace=wrap;html=1;rounded=0;" vertex="1" parent="MIYx1o6pVA1GDxMh2l_--69">
          <mxGeometry x="590" width="50" height="50" as="geometry">
            <mxRectangle width="50" height="50" as="alternateBounds" />
          </mxGeometry>
        </mxCell>
        <mxCell id="MIYx1o6pVA1GDxMh2l_--149" style="connectable=0;recursiveResize=0;strokeColor=inherit;fillColor=none;align=center;whiteSpace=wrap;html=1;rounded=0;" vertex="1" parent="MIYx1o6pVA1GDxMh2l_--69">
          <mxGeometry x="640" width="50" height="50" as="geometry">
            <mxRectangle width="50" height="50" as="alternateBounds" />
          </mxGeometry>
        </mxCell>
        <mxCell id="MIYx1o6pVA1GDxMh2l_--169" style="connectable=0;recursiveResize=0;strokeColor=inherit;fillColor=none;align=center;whiteSpace=wrap;html=1;rounded=0;" vertex="1" parent="MIYx1o6pVA1GDxMh2l_--69">
          <mxGeometry x="690" width="70" height="50" as="geometry">
            <mxRectangle width="70" height="50" as="alternateBounds" />
          </mxGeometry>
        </mxCell>
        <mxCell id="MIYx1o6pVA1GDxMh2l_--159" style="connectable=0;recursiveResize=0;strokeColor=inherit;fillColor=none;align=center;whiteSpace=wrap;html=1;rounded=0;" vertex="1" parent="MIYx1o6pVA1GDxMh2l_--69">
          <mxGeometry x="760" width="60" height="50" as="geometry">
            <mxRectangle width="60" height="50" as="alternateBounds" />
          </mxGeometry>
        </mxCell>
        <mxCell id="MIYx1o6pVA1GDxMh2l_--79" style="shape=tableRow;horizontal=0;startSize=0;swimlaneHead=0;swimlaneBody=0;top=0;left=0;bottom=0;right=0;dropTarget=0;collapsible=0;recursiveResize=0;expand=0;fontStyle=0;fillColor=none;strokeColor=inherit;rounded=0;" vertex="1" parent="MIYx1o6pVA1GDxMh2l_--1">
          <mxGeometry y="345" width="819.9999999999991" height="50" as="geometry" />
        </mxCell>
        <mxCell id="MIYx1o6pVA1GDxMh2l_--80" style="connectable=0;recursiveResize=0;strokeColor=inherit;fillColor=none;align=center;whiteSpace=wrap;html=1;rounded=0;" vertex="1" parent="MIYx1o6pVA1GDxMh2l_--79">
          <mxGeometry width="30" height="50" as="geometry">
            <mxRectangle width="30" height="50" as="alternateBounds" />
          </mxGeometry>
        </mxCell>
        <mxCell id="MIYx1o6pVA1GDxMh2l_--81" style="connectable=0;recursiveResize=0;strokeColor=inherit;fillColor=none;align=center;whiteSpace=wrap;html=1;rounded=0;" vertex="1" parent="MIYx1o6pVA1GDxMh2l_--79">
          <mxGeometry x="30" width="170" height="50" as="geometry">
            <mxRectangle width="170" height="50" as="alternateBounds" />
          </mxGeometry>
        </mxCell>
        <mxCell id="MIYx1o6pVA1GDxMh2l_--82" style="connectable=0;recursiveResize=0;strokeColor=inherit;fillColor=none;align=center;whiteSpace=wrap;html=1;rounded=0;" vertex="1" parent="MIYx1o6pVA1GDxMh2l_--79">
          <mxGeometry x="200" width="70" height="50" as="geometry">
            <mxRectangle width="70" height="50" as="alternateBounds" />
          </mxGeometry>
        </mxCell>
        <mxCell id="MIYx1o6pVA1GDxMh2l_--83" style="connectable=0;recursiveResize=0;strokeColor=inherit;fillColor=none;align=center;whiteSpace=wrap;html=1;rounded=0;" vertex="1" parent="MIYx1o6pVA1GDxMh2l_--79">
          <mxGeometry x="270" width="70" height="50" as="geometry">
            <mxRectangle width="70" height="50" as="alternateBounds" />
          </mxGeometry>
        </mxCell>
        <mxCell id="MIYx1o6pVA1GDxMh2l_--84" style="connectable=0;recursiveResize=0;strokeColor=inherit;fillColor=none;align=center;whiteSpace=wrap;html=1;rounded=0;" vertex="1" parent="MIYx1o6pVA1GDxMh2l_--79">
          <mxGeometry x="340" width="50" height="50" as="geometry">
            <mxRectangle width="50" height="50" as="alternateBounds" />
          </mxGeometry>
        </mxCell>
        <mxCell id="MIYx1o6pVA1GDxMh2l_--85" style="connectable=0;recursiveResize=0;strokeColor=inherit;fillColor=none;align=center;whiteSpace=wrap;html=1;rounded=0;" vertex="1" parent="MIYx1o6pVA1GDxMh2l_--79">
          <mxGeometry x="390" width="50" height="50" as="geometry">
            <mxRectangle width="50" height="50" as="alternateBounds" />
          </mxGeometry>
        </mxCell>
        <mxCell id="MIYx1o6pVA1GDxMh2l_--86" style="connectable=0;recursiveResize=0;strokeColor=inherit;fillColor=none;align=center;whiteSpace=wrap;html=1;rounded=0;" vertex="1" parent="MIYx1o6pVA1GDxMh2l_--79">
          <mxGeometry x="440" width="50" height="50" as="geometry">
            <mxRectangle width="50" height="50" as="alternateBounds" />
          </mxGeometry>
        </mxCell>
        <mxCell id="MIYx1o6pVA1GDxMh2l_--87" style="connectable=0;recursiveResize=0;strokeColor=inherit;fillColor=none;align=center;whiteSpace=wrap;html=1;rounded=0;" vertex="1" parent="MIYx1o6pVA1GDxMh2l_--79">
          <mxGeometry x="490" width="50" height="50" as="geometry">
            <mxRectangle width="50" height="50" as="alternateBounds" />
          </mxGeometry>
        </mxCell>
        <mxCell id="MIYx1o6pVA1GDxMh2l_--88" style="connectable=0;recursiveResize=0;strokeColor=inherit;fillColor=none;align=center;whiteSpace=wrap;html=1;rounded=0;" vertex="1" parent="MIYx1o6pVA1GDxMh2l_--79">
          <mxGeometry x="540" width="50" height="50" as="geometry">
            <mxRectangle width="50" height="50" as="alternateBounds" />
          </mxGeometry>
        </mxCell>
        <mxCell id="MIYx1o6pVA1GDxMh2l_--140" style="connectable=0;recursiveResize=0;strokeColor=inherit;fillColor=none;align=center;whiteSpace=wrap;html=1;rounded=0;" vertex="1" parent="MIYx1o6pVA1GDxMh2l_--79">
          <mxGeometry x="590" width="50" height="50" as="geometry">
            <mxRectangle width="50" height="50" as="alternateBounds" />
          </mxGeometry>
        </mxCell>
        <mxCell id="MIYx1o6pVA1GDxMh2l_--150" style="connectable=0;recursiveResize=0;strokeColor=inherit;fillColor=none;align=center;whiteSpace=wrap;html=1;rounded=0;" vertex="1" parent="MIYx1o6pVA1GDxMh2l_--79">
          <mxGeometry x="640" width="50" height="50" as="geometry">
            <mxRectangle width="50" height="50" as="alternateBounds" />
          </mxGeometry>
        </mxCell>
        <mxCell id="MIYx1o6pVA1GDxMh2l_--170" style="connectable=0;recursiveResize=0;strokeColor=inherit;fillColor=none;align=center;whiteSpace=wrap;html=1;rounded=0;" vertex="1" parent="MIYx1o6pVA1GDxMh2l_--79">
          <mxGeometry x="690" width="70" height="50" as="geometry">
            <mxRectangle width="70" height="50" as="alternateBounds" />
          </mxGeometry>
        </mxCell>
        <mxCell id="MIYx1o6pVA1GDxMh2l_--160" style="connectable=0;recursiveResize=0;strokeColor=inherit;fillColor=none;align=center;whiteSpace=wrap;html=1;rounded=0;" vertex="1" parent="MIYx1o6pVA1GDxMh2l_--79">
          <mxGeometry x="760" width="60" height="50" as="geometry">
            <mxRectangle width="60" height="50" as="alternateBounds" />
          </mxGeometry>
        </mxCell>
        <mxCell id="MIYx1o6pVA1GDxMh2l_--89" style="shape=tableRow;horizontal=0;startSize=0;swimlaneHead=0;swimlaneBody=0;top=0;left=0;bottom=0;right=0;dropTarget=0;collapsible=0;recursiveResize=0;expand=0;fontStyle=0;fillColor=none;strokeColor=inherit;rounded=0;" vertex="1" parent="MIYx1o6pVA1GDxMh2l_--1">
          <mxGeometry y="395" width="819.9999999999991" height="50" as="geometry" />
        </mxCell>
        <mxCell id="MIYx1o6pVA1GDxMh2l_--90" style="connectable=0;recursiveResize=0;strokeColor=inherit;fillColor=none;align=center;whiteSpace=wrap;html=1;rounded=0;" vertex="1" parent="MIYx1o6pVA1GDxMh2l_--89">
          <mxGeometry width="30" height="50" as="geometry">
            <mxRectangle width="30" height="50" as="alternateBounds" />
          </mxGeometry>
        </mxCell>
        <mxCell id="MIYx1o6pVA1GDxMh2l_--91" style="connectable=0;recursiveResize=0;strokeColor=inherit;fillColor=none;align=center;whiteSpace=wrap;html=1;rounded=0;" vertex="1" parent="MIYx1o6pVA1GDxMh2l_--89">
          <mxGeometry x="30" width="170" height="50" as="geometry">
            <mxRectangle width="170" height="50" as="alternateBounds" />
          </mxGeometry>
        </mxCell>
        <mxCell id="MIYx1o6pVA1GDxMh2l_--92" style="connectable=0;recursiveResize=0;strokeColor=inherit;fillColor=none;align=center;whiteSpace=wrap;html=1;rounded=0;" vertex="1" parent="MIYx1o6pVA1GDxMh2l_--89">
          <mxGeometry x="200" width="70" height="50" as="geometry">
            <mxRectangle width="70" height="50" as="alternateBounds" />
          </mxGeometry>
        </mxCell>
        <mxCell id="MIYx1o6pVA1GDxMh2l_--93" style="connectable=0;recursiveResize=0;strokeColor=inherit;fillColor=none;align=center;whiteSpace=wrap;html=1;rounded=0;" vertex="1" parent="MIYx1o6pVA1GDxMh2l_--89">
          <mxGeometry x="270" width="70" height="50" as="geometry">
            <mxRectangle width="70" height="50" as="alternateBounds" />
          </mxGeometry>
        </mxCell>
        <mxCell id="MIYx1o6pVA1GDxMh2l_--94" style="connectable=0;recursiveResize=0;strokeColor=inherit;fillColor=none;align=center;whiteSpace=wrap;html=1;rounded=0;" vertex="1" parent="MIYx1o6pVA1GDxMh2l_--89">
          <mxGeometry x="340" width="50" height="50" as="geometry">
            <mxRectangle width="50" height="50" as="alternateBounds" />
          </mxGeometry>
        </mxCell>
        <mxCell id="MIYx1o6pVA1GDxMh2l_--95" style="connectable=0;recursiveResize=0;strokeColor=inherit;fillColor=none;align=center;whiteSpace=wrap;html=1;rounded=0;" vertex="1" parent="MIYx1o6pVA1GDxMh2l_--89">
          <mxGeometry x="390" width="50" height="50" as="geometry">
            <mxRectangle width="50" height="50" as="alternateBounds" />
          </mxGeometry>
        </mxCell>
        <mxCell id="MIYx1o6pVA1GDxMh2l_--96" style="connectable=0;recursiveResize=0;strokeColor=inherit;fillColor=none;align=center;whiteSpace=wrap;html=1;rounded=0;" vertex="1" parent="MIYx1o6pVA1GDxMh2l_--89">
          <mxGeometry x="440" width="50" height="50" as="geometry">
            <mxRectangle width="50" height="50" as="alternateBounds" />
          </mxGeometry>
        </mxCell>
        <mxCell id="MIYx1o6pVA1GDxMh2l_--97" style="connectable=0;recursiveResize=0;strokeColor=inherit;fillColor=none;align=center;whiteSpace=wrap;html=1;rounded=0;" vertex="1" parent="MIYx1o6pVA1GDxMh2l_--89">
          <mxGeometry x="490" width="50" height="50" as="geometry">
            <mxRectangle width="50" height="50" as="alternateBounds" />
          </mxGeometry>
        </mxCell>
        <mxCell id="MIYx1o6pVA1GDxMh2l_--98" style="connectable=0;recursiveResize=0;strokeColor=inherit;fillColor=none;align=center;whiteSpace=wrap;html=1;rounded=0;" vertex="1" parent="MIYx1o6pVA1GDxMh2l_--89">
          <mxGeometry x="540" width="50" height="50" as="geometry">
            <mxRectangle width="50" height="50" as="alternateBounds" />
          </mxGeometry>
        </mxCell>
        <mxCell id="MIYx1o6pVA1GDxMh2l_--141" style="connectable=0;recursiveResize=0;strokeColor=inherit;fillColor=none;align=center;whiteSpace=wrap;html=1;rounded=0;" vertex="1" parent="MIYx1o6pVA1GDxMh2l_--89">
          <mxGeometry x="590" width="50" height="50" as="geometry">
            <mxRectangle width="50" height="50" as="alternateBounds" />
          </mxGeometry>
        </mxCell>
        <mxCell id="MIYx1o6pVA1GDxMh2l_--151" style="connectable=0;recursiveResize=0;strokeColor=inherit;fillColor=none;align=center;whiteSpace=wrap;html=1;rounded=0;" vertex="1" parent="MIYx1o6pVA1GDxMh2l_--89">
          <mxGeometry x="640" width="50" height="50" as="geometry">
            <mxRectangle width="50" height="50" as="alternateBounds" />
          </mxGeometry>
        </mxCell>
        <mxCell id="MIYx1o6pVA1GDxMh2l_--171" style="connectable=0;recursiveResize=0;strokeColor=inherit;fillColor=none;align=center;whiteSpace=wrap;html=1;rounded=0;" vertex="1" parent="MIYx1o6pVA1GDxMh2l_--89">
          <mxGeometry x="690" width="70" height="50" as="geometry">
            <mxRectangle width="70" height="50" as="alternateBounds" />
          </mxGeometry>
        </mxCell>
        <mxCell id="MIYx1o6pVA1GDxMh2l_--161" style="connectable=0;recursiveResize=0;strokeColor=inherit;fillColor=none;align=center;whiteSpace=wrap;html=1;rounded=0;" vertex="1" parent="MIYx1o6pVA1GDxMh2l_--89">
          <mxGeometry x="760" width="60" height="50" as="geometry">
            <mxRectangle width="60" height="50" as="alternateBounds" />
          </mxGeometry>
        </mxCell>
        <mxCell id="MIYx1o6pVA1GDxMh2l_--99" style="shape=tableRow;horizontal=0;startSize=0;swimlaneHead=0;swimlaneBody=0;top=0;left=0;bottom=0;right=0;dropTarget=0;collapsible=0;recursiveResize=0;expand=0;fontStyle=0;fillColor=none;strokeColor=inherit;rounded=0;" vertex="1" parent="MIYx1o6pVA1GDxMh2l_--1">
          <mxGeometry y="445" width="819.9999999999991" height="50" as="geometry" />
        </mxCell>
        <mxCell id="MIYx1o6pVA1GDxMh2l_--100" style="connectable=0;recursiveResize=0;strokeColor=inherit;fillColor=none;align=center;whiteSpace=wrap;html=1;rounded=0;" vertex="1" parent="MIYx1o6pVA1GDxMh2l_--99">
          <mxGeometry width="30" height="50" as="geometry">
            <mxRectangle width="30" height="50" as="alternateBounds" />
          </mxGeometry>
        </mxCell>
        <mxCell id="MIYx1o6pVA1GDxMh2l_--101" style="connectable=0;recursiveResize=0;strokeColor=inherit;fillColor=none;align=center;whiteSpace=wrap;html=1;rounded=0;" vertex="1" parent="MIYx1o6pVA1GDxMh2l_--99">
          <mxGeometry x="30" width="170" height="50" as="geometry">
            <mxRectangle width="170" height="50" as="alternateBounds" />
          </mxGeometry>
        </mxCell>
        <mxCell id="MIYx1o6pVA1GDxMh2l_--102" style="connectable=0;recursiveResize=0;strokeColor=inherit;fillColor=none;align=center;whiteSpace=wrap;html=1;rounded=0;" vertex="1" parent="MIYx1o6pVA1GDxMh2l_--99">
          <mxGeometry x="200" width="70" height="50" as="geometry">
            <mxRectangle width="70" height="50" as="alternateBounds" />
          </mxGeometry>
        </mxCell>
        <mxCell id="MIYx1o6pVA1GDxMh2l_--103" style="connectable=0;recursiveResize=0;strokeColor=inherit;fillColor=none;align=center;whiteSpace=wrap;html=1;rounded=0;" vertex="1" parent="MIYx1o6pVA1GDxMh2l_--99">
          <mxGeometry x="270" width="70" height="50" as="geometry">
            <mxRectangle width="70" height="50" as="alternateBounds" />
          </mxGeometry>
        </mxCell>
        <mxCell id="MIYx1o6pVA1GDxMh2l_--104" style="connectable=0;recursiveResize=0;strokeColor=inherit;fillColor=none;align=center;whiteSpace=wrap;html=1;rounded=0;" vertex="1" parent="MIYx1o6pVA1GDxMh2l_--99">
          <mxGeometry x="340" width="50" height="50" as="geometry">
            <mxRectangle width="50" height="50" as="alternateBounds" />
          </mxGeometry>
        </mxCell>
        <mxCell id="MIYx1o6pVA1GDxMh2l_--105" style="connectable=0;recursiveResize=0;strokeColor=inherit;fillColor=none;align=center;whiteSpace=wrap;html=1;rounded=0;" vertex="1" parent="MIYx1o6pVA1GDxMh2l_--99">
          <mxGeometry x="390" width="50" height="50" as="geometry">
            <mxRectangle width="50" height="50" as="alternateBounds" />
          </mxGeometry>
        </mxCell>
        <mxCell id="MIYx1o6pVA1GDxMh2l_--106" style="connectable=0;recursiveResize=0;strokeColor=inherit;fillColor=none;align=center;whiteSpace=wrap;html=1;rounded=0;" vertex="1" parent="MIYx1o6pVA1GDxMh2l_--99">
          <mxGeometry x="440" width="50" height="50" as="geometry">
            <mxRectangle width="50" height="50" as="alternateBounds" />
          </mxGeometry>
        </mxCell>
        <mxCell id="MIYx1o6pVA1GDxMh2l_--107" style="connectable=0;recursiveResize=0;strokeColor=inherit;fillColor=none;align=center;whiteSpace=wrap;html=1;rounded=0;" vertex="1" parent="MIYx1o6pVA1GDxMh2l_--99">
          <mxGeometry x="490" width="50" height="50" as="geometry">
            <mxRectangle width="50" height="50" as="alternateBounds" />
          </mxGeometry>
        </mxCell>
        <mxCell id="MIYx1o6pVA1GDxMh2l_--108" style="connectable=0;recursiveResize=0;strokeColor=inherit;fillColor=none;align=center;whiteSpace=wrap;html=1;rounded=0;" vertex="1" parent="MIYx1o6pVA1GDxMh2l_--99">
          <mxGeometry x="540" width="50" height="50" as="geometry">
            <mxRectangle width="50" height="50" as="alternateBounds" />
          </mxGeometry>
        </mxCell>
        <mxCell id="MIYx1o6pVA1GDxMh2l_--142" style="connectable=0;recursiveResize=0;strokeColor=inherit;fillColor=none;align=center;whiteSpace=wrap;html=1;rounded=0;" vertex="1" parent="MIYx1o6pVA1GDxMh2l_--99">
          <mxGeometry x="590" width="50" height="50" as="geometry">
            <mxRectangle width="50" height="50" as="alternateBounds" />
          </mxGeometry>
        </mxCell>
        <mxCell id="MIYx1o6pVA1GDxMh2l_--152" style="connectable=0;recursiveResize=0;strokeColor=inherit;fillColor=none;align=center;whiteSpace=wrap;html=1;rounded=0;" vertex="1" parent="MIYx1o6pVA1GDxMh2l_--99">
          <mxGeometry x="640" width="50" height="50" as="geometry">
            <mxRectangle width="50" height="50" as="alternateBounds" />
          </mxGeometry>
        </mxCell>
        <mxCell id="MIYx1o6pVA1GDxMh2l_--172" style="connectable=0;recursiveResize=0;strokeColor=inherit;fillColor=none;align=center;whiteSpace=wrap;html=1;rounded=0;" vertex="1" parent="MIYx1o6pVA1GDxMh2l_--99">
          <mxGeometry x="690" width="70" height="50" as="geometry">
            <mxRectangle width="70" height="50" as="alternateBounds" />
          </mxGeometry>
        </mxCell>
        <mxCell id="MIYx1o6pVA1GDxMh2l_--162" style="connectable=0;recursiveResize=0;strokeColor=inherit;fillColor=none;align=center;whiteSpace=wrap;html=1;rounded=0;" vertex="1" parent="MIYx1o6pVA1GDxMh2l_--99">
          <mxGeometry x="760" width="60" height="50" as="geometry">
            <mxRectangle width="60" height="50" as="alternateBounds" />
          </mxGeometry>
        </mxCell>
      </root>
    </mxGraphModel>
  </diagram>
</mxfile>
